<svg xmlns="http://www.w3.org/2000/svg" viewBox="0 0 50 50" width="500px" height="500px">
  <path d="M 25 0 C 23.691406 0 22.398438 0.507813 21.40625 1.5 L 1.5 21.40625 C -0.484375 23.390625 -0.484375 26.609375 1.5 28.59375 L 21.40625 48.5 C 23.390625 50.484375 26.609375 50.484375 28.59375 48.5 L 48.5 28.59375 C 50.484375 26.609375 50.484375 23.390625 48.5 21.40625 L 28.59375 1.5 C 27.601563 0.507813 26.308594 0 25 0 Z M 25 2 C 25.792969 2 26.578125 2.296875 27.1875 2.90625 L 47.09375 22.8125 C 48.3125 24.03125 48.3125 25.96875 47.09375 27.1875 L 27.15625 47.125 C 25.9375 48.3125 24.019531 48.300781 22.8125 47.09375 L 2.90625 27.1875 C 1.6875 25.96875 1.6875 24.03125 2.90625 22.8125 L 22.8125 2.90625 C 23.421875 2.296875 24.207031 2 25 2 Z M 29.84375 12 C 28.441406 12.09375 26.644531 12.386719 25.3125 13.8125 C 22.875 13.644531 20.082031 15.074219 17.25 17.125 C 14.207031 19.332031 11.222656 22.296875 9.1875 25.21875 C 8.902344 25.613281 8.945313 26.152344 9.28125 26.5 L 19.5 36.71875 C 19.890625 37.105469 20.515625 37.105469 20.90625 36.71875 C 22.304688 35.320313 22.273438 33.445313 22.5 31.875 C 22.664063 30.738281 23.058594 29.753906 23.78125 28.84375 C 24.652344 30.25 26.070313 31.046875 27.375 31.46875 C 28.242188 31.75 29.109375 31.902344 29.8125 32.0625 C 30.515625 32.222656 31.046875 32.398438 31.25 32.53125 C 31.332031 32.585938 31.789063 33.28125 32.5 33.90625 C 32.855469 34.21875 33.347656 34.535156 33.96875 34.59375 C 34.40625 34.636719 34.871094 34.390625 35.3125 34.1875 C 35.496094 34.101563 35.695313 34.152344 35.875 34.03125 L 35.84375 33.96875 C 36.210938 33.886719 36.59375 33.878906 36.875 33.5625 C 37.296875 33.085938 37.441406 32.5 37.5 31.8125 C 37.5 31.800781 37.5 31.792969 37.5 31.78125 C 37.519531 31.667969 37.667969 31.429688 37.84375 30.90625 C 38.023438 30.367188 38.039063 29.441406 37.53125 28.71875 C 37.511719 28.695313 37.492188 28.675781 37.46875 28.65625 C 35.082031 25.878906 34.382813 24.292969 33.8125 22.75 C 33.25 21.226563 32.785156 19.628906 31.0625 17.375 C 31.523438 17.578125 31.941406 17.804688 32.15625 18 C 32.484375 18.300781 32.996094 18.28125 33.296875 17.953125 C 33.597656 17.625 33.578125 17.113281 33.25 16.8125 C 32.507813 16.140625 31.476563 15.757813 30.59375 15.46875 C 30.378906 15.398438 30.222656 15.367188 30.03125 15.3125 C 30.191406 14.984375 30.40625 14.492188 30.84375 13.375 C 30.972656 13.054688 30.929688 12.6875 30.726563 12.410156 C 30.523438 12.128906 30.1875 11.972656 29.84375 12 Z M 28.25 14.25 C 28.105469 14.5625 27.71875 15.5 27.71875 15.5 C 27.507813 15.871094 27.558594 16.335938 27.84375 16.65625 L 29.40625 18.5 L 29.4375 18.53125 C 31.027344 20.601563 31.335938 21.847656 31.9375 23.46875 C 32.535156 25.085938 33.414063 26.996094 35.875 29.875 C 36.070313 30.152344 36.007813 30.039063 35.9375 30.25 C 35.867188 30.460938 35.585938 30.867188 35.5 31.5625 C 35.5 31.582031 35.5 31.605469 35.5 31.625 C 35.464844 32.0625 35.375 32.207031 35.375 32.21875 C 35.359375 32.214844 35.367188 32.1875 35.3125 32.1875 C 35.109375 32.191406 34.914063 32.257813 34.75 32.375 C 34.40625 32.609375 34.261719 32.601563 34.1875 32.59375 C 34.113281 32.585938 34.011719 32.554688 33.84375 32.40625 C 33.503906 32.109375 33.164063 31.421875 32.34375 30.875 C 31.695313 30.457031 30.996094 30.292969 30.25 30.125 C 29.503906 29.957031 28.71875 29.792969 28 29.5625 C 26.5625 29.097656 25.472656 28.503906 25.0625 26.78125 C 24.984375 26.464844 24.757813 26.203125 24.453125 26.085938 C 24.148438 25.964844 23.804688 26.003906 23.53125 26.1875 C 21.363281 27.726563 20.78125 29.863281 20.53125 31.59375 C 20.363281 32.757813 20.191406 33.59375 19.9375 34.3125 L 11.34375 25.71875 C 13.207031 23.230469 15.808594 20.652344 18.4375 18.75 C 21.292969 16.679688 24.195313 15.542969 25.53125 15.78125 C 25.898438 15.847656 26.273438 15.703125 26.5 15.40625 C 26.980469 14.753906 27.578125 14.429688 28.25 14.25 Z" fill="#000000" />
</svg>